<svg xmlns="http://www.w3.org/2000/svg" width="1321" height="1321" fill="none"><path fill="#FB4566" d="M1321 660.5c0 364.78-295.72 660.5-660.5 660.5C295.716 1321 0 1025.28 0 660.5 0 295.716 295.716 0 660.5 0 1025.28 0 1321 295.716 1321 660.5Zm-1314.268 0c0 361.07 292.702 653.77 653.768 653.77 361.07 0 653.77-292.7 653.77-653.77 0-361.066-292.7-653.768-653.77-653.768C299.434 6.732 6.732 299.434 6.732 660.5Z"/><circle cx="660.5" cy="660.5" r="641.529" fill="url(#a)"/><defs><linearGradient id="a" x1="660.5" x2="833.738" y1="18.972" y2="937.082" gradientUnits="userSpaceOnUse"><stop stop-color="#F9976F"/><stop offset="1" stop-color="#FB4566"/></linearGradient></defs></svg>